<svg width="173" height="174" viewBox="0 0 173 174" fill="none" xmlns="http://www.w3.org/2000/svg"><g clip-path="url(#clip0_242_566)"><path d="M0 72C0 46.7976 0 34.1965 4.90471 24.5704C9.21901 16.1031 16.1031 9.21901 24.5704 4.90471C34.1965 0 46.7976 0 72 0H101C126.202 0 138.804 0 148.43 4.90471C156.897 9.21901 163.781 16.1031 168.095 24.5704C173 34.1965 173 46.7976 173 72V102C173 127.202 173 139.804 168.095 149.43C163.781 157.897 156.897 164.781 148.43 169.095C138.804 174 126.202 174 101 174H72C46.7976 174 34.1965 174 24.5704 169.095C16.1031 164.781 9.21901 157.897 4.90471 149.43C0 139.804 0 127.202 0 102V72Z" fill="black" fill-opacity="0.5"></path><path d="M144.487 91.2032C145.398 106.146 140.56 119.965 131.967 130.654L131.989 130.675C130.861 132.079 128.93 132.532 127.259 131.798C101.808 120.613 71.8442 120.591 46.3498 131.776C44.6791 132.511 42.7481 132.057 41.6198 130.632C33.722 120.807 29.0137 108.348 29.0137 94.8092C29.0137 61.6855 57.1334 35.1045 90.8945 37.4149C119.578 39.3799 142.729 62.6356 144.487 91.2032Z" fill-opacity="0.7" filter="url(#colorBlur)" fill="rgba(70, 107, 176, 1)"></path><g filter="url(#filter0_f_242_566)"><ellipse cx="86" cy="141.5" rx="57.5" ry="64.5" fill="rgba(30, 64, 124, 1)" opacity="1"></ellipse></g><g filter="url(#filter1_d_242_566)"><path fill-rule="evenodd" clip-rule="evenodd" d="M4.87846 24.3214C0 33.8499 0 46.3234 0 71.2704V102.73C0 127.677 0 140.15 4.87846 149.679C9.16967 158.06 16.0169 164.874 24.4389 169.145C34.0134 174 46.5472 174 71.6146 174H101.385C126.453 174 138.987 174 148.561 169.145C156.983 164.874 163.83 158.06 168.122 149.679C173 140.15 173 127.677 173 102.73V71.2704C173 46.3234 173 33.8499 168.122 24.3214C163.83 15.94 156.983 9.12559 148.561 4.85501C138.987 0 126.453 0 101.385 0H71.6146C46.5472 0 34.0134 0 24.4389 4.85501C16.0169 9.12559 9.16967 15.94 4.87846 24.3214ZM144.487 91.2032C145.398 106.146 140.56 119.965 131.968 130.654L131.989 130.675C130.861 132.079 128.93 132.532 127.259 131.798C101.808 120.613 71.8443 120.591 46.3499 131.777C44.6792 132.511 42.7481 132.057 41.6199 130.632C33.7221 120.807 29.0137 108.348 29.0137 94.8092C29.0137 61.6855 57.1335 35.1045 90.8945 37.415C119.578 39.3799 142.729 62.6356 144.487 91.2032Z" fill="url(#paint0_linear_242_566)" fill-opacity="0.7"></path></g></g><path d="M0 72C0 46.7976 0 34.1965 4.90471 24.5704C9.21901 16.1031 16.1031 9.21901 24.5704 4.90471C34.1965 0 46.7976 0 72 0H101C126.202 0 138.804 0 148.43 4.90471C156.897 9.21901 163.781 16.1031 168.095 24.5704C173 34.1965 173 46.7976 173 72V102C173 127.202 173 139.804 168.095 149.43C163.781 157.897 156.897 164.781 148.43 169.095C138.804 174 126.202 174 101 174H72C46.7976 174 34.1965 174 24.5704 169.095C16.1031 164.781 9.21901 157.897 4.90471 149.43C0 139.804 0 127.202 0 102V72Z" stroke="#F8F6F2" stroke-opacity="1" stroke-width="1"></path><path d="M0 72C0 46.7976 0 34.1965 4.90471 24.5704C9.21901 16.1031 16.1031 9.21901 24.5704 4.90471C34.1965 0 46.7976 0 72 0H101C126.202 0 138.804 0 148.43 4.90471C156.897 9.21901 163.781 16.1031 168.095 24.5704C173 34.1965 173 46.7976 173 72V102C173 127.202 173 139.804 168.095 149.43C163.781 157.897 156.897 164.781 148.43 169.095C138.804 174 126.202 174 101 174H72C46.7976 174 34.1965 174 24.5704 169.095C16.1031 164.781 9.21901 157.897 4.90471 149.43C0 139.804 0 127.202 0 102V72Z" stroke="black" stroke-opacity="0.08" stroke-width="0.5"></path><defs><filter id="colorBlur" x="-10" y="-10" width="173" height="174"><feGaussianBlur stdDeviation="25"></feGaussianBlur></filter><filter id="filter0_f_242_566" x="-21.5" y="27" width="215" height="229" filterUnits="userSpaceOnUse"><feFlood flood-opacity="0" result="BackgroundImageFix"></feFlood><feBlend mode="normal" in="SourceGraphic" in2="BackgroundImageFix" result="shape"></feBlend><feGaussianBlur stdDeviation="25" result="effect1_foregroundBlur_242_566"></feGaussianBlur></filter><filter id="filter1_d_242_566" x="-85.4288" y="-85.4288" width="343.858" height="344.858" filterUnits="userSpaceOnUse"><feFlood flood-opacity="0" result="BackgroundImageFix"></feFlood><feColorMatrix in="SourceAlpha" type="matrix" values="0 0 0 0 0 0 0 0 0 0 0 0 0 0 0 0 0 0 127 0" result="hardAlpha"></feColorMatrix><feOffset dy="2.84763"></feOffset><feGaussianBlur stdDeviation="8.54288"></feGaussianBlur><feComposite in2="hardAlpha" operator="out"></feComposite><feColorMatrix type="matrix" values="0 0 0 0 0 0 0 0 0 0 0 0 0 0 0 0 0 0 0.05 0"></feColorMatrix><feBlend mode="normal" in2="BackgroundImageFix" result="effect1_dropShadow_242_566"></feBlend><feBlend mode="normal" in="SourceGraphic" in2="effect1_dropShadow_242_566" result="shape"></feBlend></filter><clipPath id="bgblur_1_242_566_clip_path" transform="translate(85.4288 85.4288)"><path fill-rule="evenodd" clip-rule="evenodd" d="M4.87846 24.3214C0 33.8499 0 46.3234 0 71.2704V102.73C0 127.677 0 140.15 4.87846 149.679C9.16967 158.06 16.0169 164.874 24.4389 169.145C34.0134 174 46.5472 174 71.6146 174H101.385C126.453 174 138.987 174 148.561 169.145C156.983 164.874 163.83 158.06 168.122 149.679C173 140.15 173 127.677 173 102.73V71.2704C173 46.3234 173 33.8499 168.122 24.3214C163.83 15.94 156.983 9.12559 148.561 4.85501C138.987 0 126.453 0 101.385 0H71.6146C46.5472 0 34.0134 0 24.4389 4.85501C16.0169 9.12559 9.16967 15.94 4.87846 24.3214ZM144.487 91.2032C145.398 106.146 140.56 119.965 131.968 130.654L131.989 130.675C130.861 132.079 128.93 132.532 127.259 131.798C101.808 120.613 71.8443 120.591 46.3499 131.777C44.6792 132.511 42.7481 132.057 41.6199 130.632C33.7221 120.807 29.0137 108.348 29.0137 94.8092C29.0137 61.6855 57.1335 35.1045 90.8945 37.415C119.578 39.3799 142.729 62.6356 144.487 91.2032Z"></path></clipPath><linearGradient id="paint0_linear_242_566" x1="86.5" y1="0" x2="86.5" y2="174" gradientUnits="userSpaceOnUse"><stop stop-color="white"></stop></linearGradient><clipPath id="clip0_242_566"><path d="M0 72C0 46.7976 0 34.1965 4.90471 24.5704C9.21901 16.1031 16.1031 9.21901 24.5704 4.90471C34.1965 0 46.7976 0 72 0H101C126.202 0 138.804 0 148.43 4.90471C156.897 9.21901 163.781 16.1031 168.095 24.5704C173 34.1965 173 46.7976 173 72V102C173 127.202 173 139.804 168.095 149.43C163.781 157.897 156.897 164.781 148.43 169.095C138.804 174 126.202 174 101 174H72C46.7976 174 34.1965 174 24.5704 169.095C16.1031 164.781 9.21901 157.897 4.90471 149.43C0 139.804 0 127.202 0 102V72Z" fill="white"></path></clipPath></defs></svg>